# xmcd CD database file
#
# Track frame offsets:
#	150
#	10619
#	20714
#	31791
#	41293
#	53412
#	63577
#	73696
#	83996
#	94088
#	106752
#	115174
#	127121
#	135598
#	144625
#	155365
#	165714
#	174344
#	184263
#	193608
#	204055
#	212837
#	222456
#	232591
#	245670
#	255590
#
# Disc length: 3552 seconds
#
# Revision: 0
# Processed by: cddbd v1.4PL0 Copyright (c) Steve Scherf et al.
# Submitted via: CDex 1.50
#
DISCID=600dde1a
DTITLE=Smiley Lewis - Shame, Shame, Shame [CD3 Of 4)
DYEAR=1993
DGENRE=Vintage R&B
TTITLE0=One Night
TTITLE1=Nothing But The Blues
TTITLE2=She's Got Me Hook, Line and Sinker
TTITLE3=Baby Please
TTITLE4=By The Water
TTITLE5=Rootin' And Tootin'
TTITLE6=Please Listen To Me
TTITLE7=No, No
TTITLE8=Someday You'll Want Me
TTITLE9=Down Yonder We Go Ballin'
TTITLE10=No Letter Today
TTITLE11=Mama Don't Like
TTITLE12=Shame, Shame, Shame
TTITLE13=Shame, Shame, Shame
TTITLE14=Sweeter Words (Have Never Been Told)
TTITLE15=When Did You Leave Heaven
TTITLE16=You Are My Sunshine
TTITLE17=I Wake Up Screamin'
TTITLE18=Go On Fool
TTITLE19=How Long
TTITLE20=Goin' To Jump And Shout
TTITLE21=The Sheik Of Araby
TTITLE22=Bad Luck Blues
TTITLE23=School Days Are Back Again
TTITLE24=Crazy
TTITLE25=My Love Is Gone
EXTD=YEAR: 1993
EXTT0=
EXTT1=
EXTT2=
EXTT3=
EXTT4=
EXTT5=
EXTT6=
EXTT7=
EXTT8=
EXTT9=
EXTT10=
EXTT11=
EXTT12=
EXTT13=
EXTT14=
EXTT15=
EXTT16=
EXTT17=
EXTT18=
EXTT19=
EXTT20=
EXTT21=
EXTT22=
EXTT23=
EXTT24=
EXTT25=
PLAYORDER=
